<svg width="112" height="63" viewBox="0 0 112 63" fill="none" xmlns="http://www.w3.org/2000/svg">
<mask id="path-1-inside-1_664_14444" fill="white">
<path fill-rule="evenodd" clip-rule="evenodd" d="M0.496748 40.8282C-0.416122 42.2109 -0.0352579 44.0719 1.34743 44.9847L27.9775 62.5662H67.9472C67.8504 61.714 67.3907 60.9092 66.619 60.3997L14.0737 25.7087C12.691 24.7958 10.8301 25.1767 9.91724 26.5594L0.496748 40.8282Z"/>
</mask>
<path fill-rule="evenodd" clip-rule="evenodd" d="M0.496748 40.8282C-0.416122 42.2109 -0.0352579 44.0719 1.34743 44.9847L27.9775 62.5662H67.9472C67.8504 61.714 67.3907 60.9092 66.619 60.3997L14.0737 25.7087C12.691 24.7958 10.8301 25.1767 9.91724 26.5594L0.496748 40.8282Z" fill="#B7CBFF"/>
<path d="M1.34743 44.9847L0.245502 46.6538L0.245503 46.6538L1.34743 44.9847ZM0.496748 40.8282L-1.17231 39.7263L0.496748 40.8282ZM27.9775 62.5662L26.8756 64.2353L27.3768 64.5662H27.9775V62.5662ZM67.9472 62.5662V64.5662H70.1872L69.9344 62.3405L67.9472 62.5662ZM66.619 60.3997L67.7209 58.7306L67.7209 58.7306L66.619 60.3997ZM14.0737 25.7087L15.1757 24.0396L15.1757 24.0396L14.0737 25.7087ZM9.91724 26.5594L8.24818 25.4574L8.24818 25.4574L9.91724 26.5594ZM2.44937 43.3157C1.98847 43.0114 1.86151 42.3911 2.1658 41.9302L-1.17231 39.7263C-2.69376 42.0308 -2.05898 45.1323 0.245502 46.6538L2.44937 43.3157ZM29.0794 60.8971L2.44936 43.3157L0.245503 46.6538L26.8756 64.2353L29.0794 60.8971ZM27.9775 64.5662H67.9472V60.5662H27.9775V64.5662ZM65.517 62.0687C65.7738 62.2382 65.9271 62.503 65.9599 62.7919L69.9344 62.3405C69.7736 60.925 69.0077 59.5801 67.7209 58.7306L65.517 62.0687ZM12.9718 27.3777L65.517 62.0687L67.7209 58.7306L15.1757 24.0396L12.9718 27.3777ZM11.5863 27.6613C11.8906 27.2004 12.5109 27.0734 12.9718 27.3777L15.1757 24.0396C12.8712 22.5182 9.76963 23.1529 8.24818 25.4574L11.5863 27.6613ZM2.1658 41.9302L11.5863 27.6613L8.24818 25.4574L-1.17231 39.7263L2.1658 41.9302Z" fill="white" mask="url(#path-1-inside-1_664_14444)"/>
<mask id="path-3-inside-2_664_14444" fill="white">
<path fill-rule="evenodd" clip-rule="evenodd" d="M8.58881 21.7626C7.21432 22.6877 6.85007 24.552 7.77524 25.9265L32.4379 62.5666H71.3466C72.2964 61.5696 72.4614 60.0133 71.6607 58.8238L36.5022 6.59027C35.577 5.21578 33.7128 4.85154 32.3383 5.77671L8.58881 21.7626Z"/>
</mask>
<path fill-rule="evenodd" clip-rule="evenodd" d="M8.58881 21.7626C7.21432 22.6877 6.85007 24.552 7.77524 25.9265L32.4379 62.5666H71.3466C72.2964 61.5696 72.4614 60.0133 71.6607 58.8238L36.5022 6.59027C35.577 5.21578 33.7128 4.85154 32.3383 5.77671L8.58881 21.7626Z" fill="#85A4F1"/>
<path d="M7.77524 25.9265L9.4344 24.8097L9.4344 24.8097L7.77524 25.9265ZM8.58881 21.7626L9.70559 23.4217L9.70559 23.4217L8.58881 21.7626ZM32.4379 62.5666L30.7787 63.6834L31.3732 64.5666H32.4379V62.5666ZM71.3466 62.5666V64.5666H72.2036L72.7947 63.9461L71.3466 62.5666ZM71.6607 58.8238L70.0016 59.9406L70.0016 59.9406L71.6607 58.8238ZM36.5022 6.59027L38.1613 5.47349L36.5022 6.59027ZM32.3383 5.77671L33.4551 7.43587L33.4551 7.43586L32.3383 5.77671ZM9.4344 24.8097C9.12601 24.3515 9.24742 23.7301 9.70559 23.4217L7.47202 20.1034C5.18121 21.6453 4.57413 24.7524 6.11609 27.0432L9.4344 24.8097ZM34.097 61.4498L9.4344 24.8097L6.11609 27.0432L30.7787 63.6834L34.097 61.4498ZM32.4379 64.5666H71.3466V60.5666H32.4379V64.5666ZM70.0016 59.9406C70.2671 60.3351 70.2148 60.8551 69.8985 61.1871L72.7947 63.9461C74.378 62.2841 74.6557 59.6916 73.3199 57.707L70.0016 59.9406ZM34.843 7.70705L70.0016 59.9406L73.3199 57.707L38.1613 5.47349L34.843 7.70705ZM33.4551 7.43586C33.9132 7.12748 34.5346 7.24889 34.843 7.70705L38.1613 5.47349C36.6194 3.18267 33.5123 2.5756 31.2215 4.11755L33.4551 7.43586ZM9.70559 23.4217L33.4551 7.43587L31.2215 4.11755L7.47202 20.1034L9.70559 23.4217Z" fill="white" mask="url(#path-3-inside-2_664_14444)"/>
<mask id="path-5-inside-3_664_14444" fill="white">
<path fill-rule="evenodd" clip-rule="evenodd" d="M26.6886 4.69103C25.0541 4.96251 23.9492 6.50759 24.2207 8.14205L33.2606 62.5664H60.791L51.0119 3.692C50.7405 2.05754 49.1954 0.952634 47.5609 1.22412L26.6886 4.69103Z"/>
</mask>
<path fill-rule="evenodd" clip-rule="evenodd" d="M26.6886 4.69103C25.0541 4.96251 23.9492 6.50759 24.2207 8.14205L33.2606 62.5664H60.791L51.0119 3.692C50.7405 2.05754 49.1954 0.952634 47.5609 1.22412L26.6886 4.69103Z" fill="#5F86EA"/>
<path d="M24.2207 8.14205L26.1937 7.81434L26.1937 7.81434L24.2207 8.14205ZM26.6886 4.69103L27.0163 6.664L27.0163 6.664L26.6886 4.69103ZM33.2606 62.5664L31.2877 62.8941L31.5654 64.5664H33.2606V62.5664ZM60.791 62.5664V64.5664H63.1506L62.764 62.2387L60.791 62.5664ZM51.0119 3.692L49.039 4.01972L49.039 4.01972L51.0119 3.692ZM47.5609 1.22412L47.8886 3.19709L47.8886 3.19709L47.5609 1.22412ZM26.1937 7.81434C26.1032 7.26952 26.4715 6.75449 27.0163 6.664L26.3609 2.71806C23.6368 3.17054 21.7953 5.74566 22.2477 8.46976L26.1937 7.81434ZM35.2336 62.2387L26.1937 7.81434L22.2477 8.46976L31.2877 62.8941L35.2336 62.2387ZM33.2606 64.5664H60.791V60.5664H33.2606V64.5664ZM49.039 4.01972L58.8181 62.8941L62.764 62.2387L52.9849 3.36429L49.039 4.01972ZM47.8886 3.19709C48.4335 3.10659 48.9485 3.47489 49.039 4.01972L52.9849 3.36429C52.5324 0.640193 49.9573 -1.20133 47.2332 -0.74885L47.8886 3.19709ZM27.0163 6.664L47.8886 3.19709L47.2332 -0.74885L26.3609 2.71806L27.0163 6.664Z" fill="white" mask="url(#path-5-inside-3_664_14444)"/>
<mask id="path-7-inside-4_664_14444" fill="white">
<path fill-rule="evenodd" clip-rule="evenodd" d="M48.013 0.0376876C46.3768 -0.222585 44.8393 0.89289 44.579 2.52917L35.0293 62.5664H63.6218L72.466 6.96497C72.7262 5.32868 71.6108 3.79122 69.9745 3.53095L48.013 0.0376876Z"/>
</mask>
<path fill-rule="evenodd" clip-rule="evenodd" d="M48.013 0.0376876C46.3768 -0.222585 44.8393 0.89289 44.579 2.52917L35.0293 62.5664H63.6218L72.466 6.96497C72.7262 5.32868 71.6108 3.79122 69.9745 3.53095L48.013 0.0376876Z" fill="#497BFC"/>
<path d="M44.579 2.52917L42.6038 2.215L42.6038 2.215L44.579 2.52917ZM48.013 0.0376876L47.6989 2.01286L47.6989 2.01286L48.013 0.0376876ZM35.0293 62.5664L33.0541 62.2522L32.686 64.5664H35.0293V62.5664ZM63.6218 62.5664V64.5664H65.3288L65.597 62.8806L63.6218 62.5664ZM72.466 6.96497L70.4908 6.65079L70.4908 6.65079L72.466 6.96497ZM69.9745 3.53095L69.6603 5.50612L69.6603 5.50612L69.9745 3.53095ZM46.5542 2.84335C46.6409 2.29792 47.1534 1.9261 47.6989 2.01286L48.3272 -1.93748C45.6001 -2.37127 43.0376 -0.512145 42.6038 2.215L46.5542 2.84335ZM37.0045 62.8806L46.5542 2.84335L42.6038 2.215L33.0541 62.2522L37.0045 62.8806ZM35.0293 64.5664H63.6218V60.5664H35.0293V64.5664ZM70.4908 6.65079L61.6467 62.2522L65.597 62.8806L74.4411 7.27914L70.4908 6.65079ZM69.6603 5.50612C70.2057 5.59287 70.5776 6.10536 70.4908 6.65079L74.4411 7.27914C74.8749 4.55201 73.0158 1.98957 70.2887 1.55578L69.6603 5.50612ZM47.6989 2.01286L69.6603 5.50612L70.2887 1.55578L48.3272 -1.93748L47.6989 2.01286Z" fill="white" mask="url(#path-7-inside-4_664_14444)"/>
<mask id="path-9-inside-5_664_14444" fill="white">
<path fill-rule="evenodd" clip-rule="evenodd" d="M73.5129 2.90514C71.7866 1.52669 69.2697 1.80869 67.8913 3.535L22.3341 60.5887C21.8122 61.2423 21.5283 62.0092 21.4707 62.7847H90.1072L110.348 37.4364C111.726 35.71 111.444 33.1931 109.718 31.8147L73.5129 2.90514Z"/>
</mask>
<path fill-rule="evenodd" clip-rule="evenodd" d="M73.5129 2.90514C71.7866 1.52669 69.2697 1.80869 67.8913 3.535L22.3341 60.5887C21.8122 61.2423 21.5283 62.0092 21.4707 62.7847H90.1072L110.348 37.4364C111.726 35.71 111.444 33.1931 109.718 31.8147L73.5129 2.90514Z" fill="#3864D3"/>
<path d="M67.8913 3.535L66.3284 2.28704L66.3284 2.28704L67.8913 3.535ZM73.5129 2.90514L74.7609 1.34226L74.7609 1.34226L73.5129 2.90514ZM22.3341 60.5887L20.7712 59.3408L20.7712 59.3408L22.3341 60.5887ZM21.4707 62.7847L19.4762 62.6366L19.3166 64.7847H21.4707V62.7847ZM90.1072 62.7847V64.7847H91.0696L91.6701 64.0327L90.1072 62.7847ZM110.348 37.4364L108.785 36.1884L108.785 36.1884L110.348 37.4364ZM109.718 31.8147L110.966 30.2518L110.966 30.2518L109.718 31.8147ZM69.4541 4.78296C70.1434 3.9198 71.4018 3.7788 72.265 4.46803L74.7609 1.34226C72.1714 -0.725426 68.396 -0.302421 66.3284 2.28704L69.4541 4.78296ZM23.8969 61.8367L69.4541 4.78296L66.3284 2.28704L20.7712 59.3408L23.8969 61.8367ZM23.4652 62.9329C23.4939 62.5463 23.6343 62.1656 23.8969 61.8367L20.7712 59.3408C19.9901 60.319 19.5627 61.4721 19.4762 62.6366L23.4652 62.9329ZM21.4707 64.7847H90.1072V60.7847H21.4707V64.7847ZM108.785 36.1884L88.5443 61.5368L91.6701 64.0327L111.911 38.6843L108.785 36.1884ZM108.47 33.3776C109.333 34.0668 109.474 35.3252 108.785 36.1884L111.911 38.6843C113.978 36.0948 113.555 32.3195 110.966 30.2518L108.47 33.3776ZM72.265 4.46803L108.47 33.3776L110.966 30.2518L74.7609 1.34226L72.265 4.46803Z" fill="white" mask="url(#path-9-inside-5_664_14444)"/>
<path d="M80.3048 19.1393C80.3114 19.0597 80.4041 19.0197 80.4666 19.0693L92.411 28.5543C92.4735 28.604 92.4555 28.7033 92.3794 28.7278L88.9416 29.8353C88.6234 29.9378 88.2749 29.8745 88.0131 29.6666L80.3796 23.6048C80.1177 23.3969 79.9771 23.0719 80.0049 22.7387L80.3048 19.1393Z" fill="#FCFDFF"/>
</svg>
